<?xml version="1.0" standalone="no"?>
<!DOCTYPE svg PUBLIC "-//W3C//DTD SVG 20010904//EN"
 "http://www.w3.org/TR/2001/REC-SVG-20010904/DTD/svg10.dtd">
<svg version="1.0" xmlns="http://www.w3.org/2000/svg"
 width="512.000000pt" height="512.000000pt" viewBox="0 0 512.000000 512.000000"
 preserveAspectRatio="xMidYMid meet">
<metadata>
Created by potrace 1.14, written by Peter Selinger 2001-2017
</metadata>
<g transform="translate(0.000000,512.000000) scale(0.100000,-0.100000)"
fill="#000000" stroke="none">
<path d="M893 5032 c-59 -24 -100 -59 -131 -112 l-27 -45 -2 -2295 c-3 -2580
-11 -2341 73 -2425 79 -81 -68 -75 1809 -75 1861 0 1738 -5 1814 68 21 20 47
53 57 72 18 34 19 101 19 2345 l0 2310 -28 47 c-15 26 -42 59 -60 72 -78 59
33 56 -1801 55 -1556 0 -1684 -1 -1723 -17z"/>
</g>
</svg>
